# xmcd
#
# Track frame offsets:
#	150
#	14049
#	27754
#	41699
#	58128
#	62816
#	80522
#	95456
#	113025
#	133902
#	156978
#	171618
#	185161
#	201490
#	219521
#	239599
#
# Disc length: 4250 seconds
#
# Revision: 1
# Processed by: cddbd v1.5.1PL0 Copyright (c) Steve Scherf et al.
# Submitted via: dBpowerAMP V4.0
#
DISCID=f9109810
DTITLE=Noizmakaz - Valitud Mõtted
DYEAR=2005
DGENRE=Rap
TTITLE0=Valitud mõtted
TTITLE1=Mürareostus
TTITLE2=Miski muu ei loe
TTITLE3=Kapitalist
TTITLE4=Kõnehäirekeskus
TTITLE5=Aeg ehk hapu mõtles Ats
TTITLE6=Küsimus ei ole armastuses
TTITLE7=Lõputu võrrand (feat. Belka and Luiks)
TTITLE8=Tänava sümfoonia II (feat. Põhjamaade Hirm, Skazo and Jilio)
TTITLE9=Hääled Kivilinnast
TTITLE10=Ootan sind uni (feat. Leelo Tungal)
TTITLE11=Luba ma vaikin (feat. Laura)
TTITLE12=Käsi peseb kätt
TTITLE13=Diskokuul (feat. End-L)
TTITLE14=Monument
TTITLE15=Hüvasti mu relvad (feat. Laura)
EXTD=
EXTT0=
EXTT1=
EXTT2=
EXTT3=
EXTT4=
EXTT5=
EXTT6=
EXTT7=
EXTT8=
EXTT9=
EXTT10=
EXTT11=
EXTT12=
EXTT13=
EXTT14=
EXTT15=
PLAYORDER=
